<svg xmlns="http://www.w3.org/2000/svg" viewBox="0 0 576 432"><defs><style>.cls-1{fill:none;stroke:#414042;stroke-miterlimit:10;stroke-width:4px;}.cls-2{font-size:63.4px;}.cls-2,.cls-3,.cls-4{fill:#003c14;}.cls-2,.cls-4{font-family:Arapey-Regular, Arapey;}.cls-4{font-size:27.67px;}</style></defs><title>bb finals states</title><g id="Layer_2" data-name="Layer 2"><circle class="cls-1" cx="288" cy="206.81" r="129.34"/><text class="cls-2" transform="translate(172.2 126.58) rotate(-50.82) scale(0.98 1)">B</text><text class="cls-2" transform="matrix(0.78, -0.59, 0.61, 0.79, 198.23, 97.37)">I</text><text class="cls-2" transform="translate(217.21 81.91) rotate(-21.76) scale(0.98 1)">N</text><text class="cls-2" transform="translate(260.86 66.61) rotate(-8.14) scale(0.98 1)"> </text><text class="cls-2" transform="translate(283.8 63.3) rotate(4.97) scale(0.98 1)">B</text><text class="cls-2" transform="translate(322.26 67.12) rotate(22.43) scale(0.98 1)">O</text><text class="cls-2" transform="translate(364.82 87.23) rotate(36.8) scale(0.98 1)">I</text><text class="cls-2" transform="translate(384.54 102.11) rotate(49.41) scale(0.98 1)">S</text><path class="cls-3" d="M237.84,161.54l-4.72-17.24a1,1,0,0,0-1.24-.68l-2.34.75a2.11,2.11,0,0,1-2.73-2.06l.15-5.7a.94.94,0,0,0-1-1c-8.38.19-18.71.27-19.58.5a4.33,4.33,0,0,0-.45,8.22h0C217.33,149.92,226.47,156,237.84,161.54Zm-33.13-20.36a2.81,2.81,0,1,1,3.44,2A2.81,2.81,0,0,1,204.71,141.18Z"/><path class="cls-3" d="M324.73,105.27a4.46,4.46,0,0,0-2.83-2.92,7.44,7.44,0,0,0-4.54-.16L239.1,123.3a7.41,7.41,0,0,0-3.84,2.41,4.45,4.45,0,0,0-1,4l1,3.63,90.45-24.39Zm-88,25.49-.44-1.64a2.4,2.4,0,0,1,.59-2.11,5.4,5.4,0,0,1,2.78-1.72l78.26-21.11a6.34,6.34,0,0,1,1.55-.2,5,5,0,0,1,1.71.29,2.43,2.43,0,0,1,1.58,1.53l.45,1.65Z"/><circle class="cls-3" cx="282.5" cy="290.44" r="10.6"/><path class="cls-3" d="M229.51,132.86l103.83-28a1.08,1.08,0,0,1,1.22.5l3.74,6.49a1.08,1.08,0,0,1-.66,1.58L229.7,142.53a1.08,1.08,0,0,1-1.36-1.09l.37-7.59A1.09,1.09,0,0,1,229.51,132.86Z"/><path class="cls-3" d="M371.72,270c-5-24.7-32.31-131-38-153.12a1.29,1.29,0,0,0-1.59-.92l-15.71,4.23,4.4,16.31a2,2,0,0,1-1.43,2.44h0a2.06,2.06,0,0,1-2.48-1.46l-4.38-16.24-26.37,7.11,4.36,16.17a2.09,2.09,0,0,1-1.29,2.55,2,2,0,0,1-2.57-1.39l-4.39-16.28L254.06,137l4.36,16.17a2.1,2.1,0,0,1-1.29,2.55,2,2,0,0,1-2.58-1.39l-4.38-16.28-14.24,3.84a1,1,0,0,0-.68,1.2L272.08,279.7a1.63,1.63,0,0,0,2.6.82,12.62,12.62,0,0,1,20,13.14,1.6,1.6,0,0,0,2,1.93l69.87-18.84C369.55,275.94,372.37,273.27,371.72,270Z"/><text class="cls-4" transform="matrix(0.65, 0.89, -0.81, 0.59, 159.83, 302.91)">A</text><text class="cls-4" transform="translate(171.03 317.84) rotate(47.47) scale(1.11 1)">r</text><text class="cls-4" transform="matrix(0.83, 0.74, -0.66, 0.75, 179.89, 327.49)">e</text><text class="cls-4" transform="matrix(0.91, 0.63, -0.57, 0.82, 191.09, 337.47)">n</text><text class="cls-4" transform="translate(205.98 347.36) rotate(29.26) scale(1.11 1)">’</text><text class="cls-4" transform="matrix(1, 0.49, -0.44, 0.9, 211.63, 350.55)">t</text><text class="cls-4" transform="translate(219.83 354.51) rotate(22.38) scale(1.11 1)"> </text><text class="cls-4" transform="matrix(1.06, 0.32, -0.29, 0.96, 227.91, 358.03)">w</text><text class="cls-4" transform="translate(246.38 363.42) rotate(10.7) scale(1.11 1)">e</text><text class="cls-4" transform="translate(260.43 365.95) rotate(6.94) scale(1.11 1)"> </text><text class="cls-4" transform="matrix(1.11, 0.07, -0.06, 1, 268.76, 367.03)">a</text><text class="cls-4" transform="translate(283.39 367.74) rotate(1.04) scale(1.11 1)">l</text><text class="cls-4" transform="matrix(1.11, -0.04, 0.04, 1, 291.73, 367.81)">l</text><text class="cls-4" transform="translate(300.01 367.5) rotate(-4.47) scale(1.11 1)"> </text><text class="cls-4" transform="translate(308.16 366.85) rotate(-6.98) scale(1.11 1)">j</text><text class="cls-4" transform="matrix(1.09, -0.21, 0.19, 0.98, 316.46, 365.97)">u</text><text class="cls-4" transform="translate(333.15 362.54) rotate(-16.66) scale(1.11 1)">s</text><text class="cls-4" transform="matrix(1.03, -0.4, 0.36, 0.93, 345.55, 358.73)">t</text><text class="cls-4" transform="translate(354.05 355.43) rotate(-24.57) scale(1.11 1)"> </text><text class="cls-4" transform="translate(361.7 351.91) rotate(-28.25) scale(1.11 1)">t</text><text class="cls-4" transform="translate(369.93 347.53) rotate(-32.98) scale(1.11 1)">r</text><text class="cls-4" transform="translate(380.98 340.35) rotate(-39.1) scale(1.11 1)">a</text><text class="cls-4" transform="translate(392.79 330.6) rotate(-45.15) scale(1.11 1)">s</text><text class="cls-4" transform="translate(402.26 321.12) rotate(-51.4) scale(1.11 1)">h</text><text class="cls-4" transform="matrix(0.6, -0.93, 0.84, 0.54, 412.94, 307.44)">?</text></g></svg>