<svg id="Layer_1" data-name="Layer 1" xmlns="http://www.w3.org/2000/svg" viewBox="0 0 576 432"><defs><style>.cls-1{fill:#231f20;}.cls-2{fill:#003c14;}</style></defs><title>bb finals states</title><path class="cls-1" d="M58.68,233.7V231h7.11c1.42,0,2.12-.6,2.12-1.81V142.93c0-1.21-.7-1.81-2.12-1.81H58.68v-2.73H94.09a31.07,31.07,0,0,1,19.44,6.2,19.33,19.33,0,0,1,8.09,16,22.36,22.36,0,0,1-4,13.24A24.87,24.87,0,0,1,107,182.42a29,29,0,0,1,15.5,8.62q6,6.51,6,17.32t-8.93,18.08q-8.93,7.26-21.63,7.26Zm32.23-91.07H80.32v38.73h11.5q8.93,0,13.31-6.05a23.44,23.44,0,0,0,4.39-14.15q0-8.08-4.54-13.31T90.91,142.63Zm6.2,42.51H80.32v44.33H97.11q9.08,0,14.15-6.66a25,25,0,0,0,5.07-15.58,24.69,24.69,0,0,0-5.07-15.51Q106.19,185.14,97.11,185.14Z"/><path class="cls-1" d="M145.22,228.86V142.93c0-1.21-.71-1.81-2.12-1.81H136v-2.73h30.86v2.73h-7.11c-1.41,0-2.12.6-2.12,1.81v85.93a1.87,1.87,0,0,0,2.12,2.12h7.11v2.72H136V231h7.11A1.87,1.87,0,0,0,145.22,228.86Z"/><path class="cls-1" d="M248.7,233.7l-56.89-84.41v79.57a1.87,1.87,0,0,0,2.12,2.12H201v2.72h-23.6V231h7.11a1.87,1.87,0,0,0,2.12-2.12V142.93c0-1.21-.7-1.81-2.12-1.81h-7.11v-2.73h22.24l48.72,72V143.23a1.87,1.87,0,0,0-2.12-2.11h-7.11v-2.73h23.6v2.73h-7.11c-1.41,0-2.12.6-2.12,1.81V233.7Z"/><path class="cls-1" d="M58.68,343.33v-2.72h7.11c1.42,0,2.12-.6,2.12-1.81V252.56c0-1.21-.7-1.81-2.12-1.81H58.68V248H94.09a31.07,31.07,0,0,1,19.44,6.2,19.34,19.34,0,0,1,8.09,16,22.36,22.36,0,0,1-4,13.24A24.87,24.87,0,0,1,107,292.05a29,29,0,0,1,15.5,8.62q6,6.51,6,17.32t-8.93,18.08q-8.93,7.26-21.63,7.26Zm32.23-91.07H80.32V291h11.5q8.93,0,13.31-6.05a23.44,23.44,0,0,0,4.39-14.15q0-8.09-4.54-13.31T90.91,252.26Zm6.2,42.51H80.32V339.1H97.11q9.08,0,14.15-6.66a25,25,0,0,0,5.07-15.58,24.69,24.69,0,0,0-5.07-15.51Q106.19,294.77,97.11,294.77Z"/><path class="cls-1" d="M148,332q-12-13.17-12-36.31t12-36.31q12-13.16,31.32-13.16t31.31,13.16q12,13.15,12,36.31t-12,36.31q-12,13.15-31.31,13.16T148,332Zm9.53-69.59q-8.7,12.24-8.7,33.28t8.7,33.28q8.7,12.26,21.71,12.26T201.05,329q8.77-12.25,8.77-33.28t-8.77-33.28q-8.78-12.27-21.79-12.26T157.55,262.4Z"/><path class="cls-1" d="M242.5,338.49V252.56c0-1.21-.71-1.81-2.12-1.81h-7.11V248h30.86v2.73H257c-1.41,0-2.12.6-2.12,1.81v85.93a1.87,1.87,0,0,0,2.12,2.12h7.11v2.72H233.27v-2.72h7.11A1.87,1.87,0,0,0,242.5,338.49Z"/><path class="cls-1" d="M306.94,345.15a41.43,41.43,0,0,1-20-5.45,13.09,13.09,0,0,0-4.54-1.66c-1.51,0-2.32,1.06-2.42,3.18l-.15,2.11H277V318.07h2.72q1.37,11.65,8.7,17.17a28.12,28.12,0,0,0,17.4,5.52q10.05,0,15.28-5.44a18,18,0,0,0,5.22-12.86q0-11.81-13.62-17.85l-18-8a27.43,27.43,0,0,1-12.26-9.91,24.4,24.4,0,0,1-4.08-13.54,26.87,26.87,0,0,1,7.41-19q7.41-7.93,21.34-7.94,8.16,0,16.79,5.44c1.91,1.11,3.22,1.67,3.93,1.67,1.31,0,2-1.06,2.12-3.18l.15-3H333v26.18h-2.73q-1.22-11.66-7.49-17.17a22.28,22.28,0,0,0-15.28-5.52q-9,0-13.91,4.91a15.43,15.43,0,0,0-4.92,11.2A19.55,19.55,0,0,0,292,278a22.62,22.62,0,0,0,10.06,7.87l18.16,8Q329.34,298,334,304.53a24.22,24.22,0,0,1,4.61,14.15q0,10.74-8.62,18.6T306.94,345.15Z"/><path class="cls-2" d="M325.8,158.91l-6.73-24.65a1.4,1.4,0,0,0-1.78-1L314,134.36a3,3,0,0,1-3.91-2.93l.21-8.15a1.33,1.33,0,0,0-1.37-1.37c-12,.26-26.74.37-28,.71a6.19,6.19,0,0,0-.65,11.75h0C296.49,142.3,309.55,151,325.8,158.91Zm-47.34-29.1a4,4,0,1,1,4.91,2.83A4,4,0,0,1,278.46,129.81Z"/><path class="cls-2" d="M450,78.47a6.4,6.4,0,0,0-4-4.17,10.59,10.59,0,0,0-6.49-.22L327.61,104.25a10.52,10.52,0,0,0-5.49,3.45,6.36,6.36,0,0,0-1.41,5.64l1.4,5.19L451.42,83.66ZM324.19,114.92l-.63-2.35a3.4,3.4,0,0,1,.85-3,7.7,7.7,0,0,1,4-2.46L440.25,76.93a8.46,8.46,0,0,1,2.21-.3,6.89,6.89,0,0,1,2.45.42,3.43,3.43,0,0,1,2.26,2.19l.63,2.35Z"/><circle class="cls-2" cx="389.64" cy="343.17" r="15.15"/><path class="cls-2" d="M313.9,117.91l148.42-40a1.53,1.53,0,0,1,1.74.72l5.35,9.26a1.56,1.56,0,0,1-.94,2.27l-154.29,41.6a1.54,1.54,0,0,1-1.95-1.56l.53-10.85A1.55,1.55,0,0,1,313.9,117.91Z"/><path class="cls-2" d="M517.18,314c-7.12-35.31-46.18-187.2-54.35-218.87a1.85,1.85,0,0,0-2.28-1.32l-22.44,6,6.28,23.31a2.84,2.84,0,0,1-2,3.49h0a3,3,0,0,1-3.54-2.09l-6.26-23.21-37.69,10.16,6.23,23.11a3,3,0,0,1-1.84,3.65,2.89,2.89,0,0,1-3.68-2L389.29,113,349,123.88,355.22,147a3,3,0,0,1-1.84,3.64,2.88,2.88,0,0,1-3.68-2l-6.27-23.26-20.35,5.49a1.39,1.39,0,0,0-1,1.7l52.65,195.24a2.32,2.32,0,0,0,3.71,1.18,18,18,0,0,1,28.64,18.78,2.29,2.29,0,0,0,2.83,2.76L509.8,323.6C514.09,322.44,518.11,318.63,517.18,314Z"/></svg>