<svg id="Layer_1" data-name="Layer 1" xmlns="http://www.w3.org/2000/svg" viewBox="0 0 576 432"><defs><style>.cls-1{fill:#003c14;}.cls-2{fill:#fff;}</style></defs><title>bb finals states</title><path class="cls-1" d="M201.57,146.51l-8.2-30a1.71,1.71,0,0,0-2.16-1.17l-4.07,1.29a3.65,3.65,0,0,1-4.76-3.56l.25-9.92a1.62,1.62,0,0,0-1.66-1.68c-14.58.33-32.55.46-34.07.87a7.54,7.54,0,0,0-.79,14.3h0C165.89,126.29,181.78,136.86,201.57,146.51Zm-57.64-35.42a4.88,4.88,0,1,1,6,3.44A4.88,4.88,0,0,1,143.93,111.09Z"/><path class="cls-1" d="M352.76,48.59a7.74,7.74,0,0,0-4.93-5.07,12.8,12.8,0,0,0-7.89-.27L203.77,80a12.82,12.82,0,0,0-6.69,4.2A7.75,7.75,0,0,0,195.37,91l1.7,6.32,157.4-42.45ZM199.6,93l-.77-2.86a4.19,4.19,0,0,1,1-3.68,9.38,9.38,0,0,1,4.83-3L340.87,46.71a10.56,10.56,0,0,1,2.7-.36,8.22,8.22,0,0,1,3,.52,4.17,4.17,0,0,1,2.75,2.66l.77,2.85Z"/><circle class="cls-1" cx="279.28" cy="370.79" r="18.44"/><path class="cls-1" d="M187.08,96.6,367.75,47.88a1.87,1.87,0,0,1,2.11.88L376.37,60a1.88,1.88,0,0,1-1.14,2.75L187.41,113.44a1.88,1.88,0,0,1-2.36-1.91l.64-13.21A1.88,1.88,0,0,1,187.08,96.6Z"/><path class="cls-1" d="M434.52,335.28c-8.67-43-56.22-227.87-66.16-266.43a2.25,2.25,0,0,0-2.77-1.6l-27.32,7.37L345.92,103a3.44,3.44,0,0,1-2.49,4.24h0a3.59,3.59,0,0,1-4.32-2.53l-7.62-28.26L285.62,88.81l7.58,28.13a3.64,3.64,0,0,1-2.24,4.44,3.51,3.51,0,0,1-4.48-2.42l-7.64-28.32-49,13.23L237.38,132a3.65,3.65,0,0,1-2.25,4.44,3.51,3.51,0,0,1-4.48-2.42L223,105.69l-24.77,6.68a1.7,1.7,0,0,0-1.19,2.08l64.08,237.66a2.83,2.83,0,0,0,4.53,1.42,21.82,21.82,0,0,1,9.78-4.39,22.07,22.07,0,0,1,24.28,13.59,21.84,21.84,0,0,1,.79,13.66,2.79,2.79,0,0,0,3.45,3.37L425.54,347C430.75,345.57,435.66,340.92,434.52,335.28Z"/><path class="cls-2" d="M281.09,304.45l-1.22-4.52,11.8-3.18q3.52-.94,2.71-4L255.84,149.63c-.54-2-2-2.69-4.33-2.06l-11.8,3.18-1.22-4.53,58.77-15.82q18.84-5.07,35.05,1.61t20.6,23a38.48,38.48,0,0,1-.74,23.76,42.63,42.63,0,0,1-13.89,19q16.77-.74,29.6,7.39t17.66,26.08q4.84,18-6.73,34t-32.67,21.72Zm12.79-165.6-17.58,4.74,17.31,64.29,19.08-5.14q14.82-4,19.4-16a40.28,40.28,0,0,0,1-25.44q-3.62-13.44-13.48-20.08T293.88,138.85Zm29.3,67.81-27.88,7.5,19.81,73.59,27.88-7.5q15.06-4.06,20.5-17.38a42.93,42.93,0,0,0,1.45-28.13q-4-14.82-15.34-23.48T323.18,206.66Z"/></svg>