<svg id="Layer_1" data-name="Layer 1" xmlns="http://www.w3.org/2000/svg" viewBox="0 0 576 432"><defs><style>.cls-1{fill:#231f20;}</style></defs><title>bb finals states</title><path class="cls-1" d="M71.93,254.74v-2.21h5.78c1.15,0,1.72-.5,1.72-1.48V181c0-1-.57-1.48-1.72-1.48H71.93v-2.21h28.78a25.22,25.22,0,0,1,15.8,5,15.73,15.73,0,0,1,6.58,13,18.17,18.17,0,0,1-3.26,10.76,20.19,20.19,0,0,1-8.67,7,23.54,23.54,0,0,1,12.61,7q4.85,5.28,4.85,14.08t-7.25,14.7a27,27,0,0,1-17.59,5.9Zm26.19-74h-8.6v31.49h9.34q7.26,0,10.82-4.92a19.05,19.05,0,0,0,3.57-11.5A15.89,15.89,0,0,0,109.56,185Q105.87,180.71,98.12,180.7Zm5,34.56H89.52v36h13.65a13.6,13.6,0,0,0,11.49-5.42,20.26,20.26,0,0,0,4.12-12.66,20.06,20.06,0,0,0-4.12-12.61Q110.55,215.27,103.17,215.26Z"/><path class="cls-1" d="M142.27,250.8V181c0-1-.57-1.48-1.72-1.48h-5.78v-2.21h25.09v2.21h-5.78c-1.15,0-1.72.5-1.72,1.48V250.8a1.52,1.52,0,0,0,1.72,1.73h5.78v2.21H134.77v-2.21h5.78A1.52,1.52,0,0,0,142.27,250.8Z"/><path class="cls-1" d="M226.39,254.74l-46.24-68.62V250.8a1.52,1.52,0,0,0,1.72,1.73h5.78v2.21H168.46v-2.21h5.78A1.53,1.53,0,0,0,176,250.8V181c0-1-.58-1.48-1.73-1.48h-5.78v-2.21h18.08l39.6,58.54V181.2a1.52,1.52,0,0,0-1.72-1.73h-5.78v-2.21h19.18v2.21h-5.77c-1.15,0-1.73.5-1.73,1.48v73.79Z"/><path class="cls-1" d="M276.56,254.74v-2.21h5.78c1.15,0,1.73-.5,1.73-1.48V181c0-1-.58-1.48-1.73-1.48h-5.78v-2.21h28.78a25.2,25.2,0,0,1,15.8,5,15.71,15.71,0,0,1,6.58,13,18.1,18.1,0,0,1-3.26,10.76,20.19,20.19,0,0,1-8.67,7,23.54,23.54,0,0,1,12.61,7q4.86,5.28,4.86,14.08T326,248.84a27,27,0,0,1-17.59,5.9Zm26.2-74h-8.61v31.49h9.35q7.25,0,10.82-4.92a19.11,19.11,0,0,0,3.56-11.5A15.89,15.89,0,0,0,314.19,185C311.74,182.12,307.92,180.7,302.76,180.7Zm5,34.56H294.15v36H307.8a13.63,13.63,0,0,0,11.5-5.42,20.32,20.32,0,0,0,4.12-12.66,20.12,20.12,0,0,0-4.12-12.61Q315.18,215.27,307.8,215.26Z"/><path class="cls-1" d="M349.18,245.52Q339.4,234.81,339.4,216t9.78-29.52q9.78-10.69,25.46-10.69t25.45,10.69q9.78,10.71,9.78,29.52t-9.78,29.52q-9.76,10.7-25.45,10.69T349.18,245.52Zm7.75-56.58q-7.08,10-7.07,27.06t7.07,27.06q7.06,10,17.65,10t17.7-10q7.14-10,7.14-27.06t-7.14-27.06q-7.12-10-17.7-10T356.93,188.94Z"/><path class="cls-1" d="M426,250.8V181c0-1-.57-1.48-1.72-1.48h-5.78v-2.21h25.09v2.21h-5.78c-1.15,0-1.73.5-1.73,1.48V250.8a1.53,1.53,0,0,0,1.73,1.73h5.78v2.21H418.48v-2.21h5.78A1.52,1.52,0,0,0,426,250.8Z"/><path class="cls-1" d="M478.37,256.21a33.7,33.7,0,0,1-16.24-4.42,10.8,10.8,0,0,0-3.68-1.36c-1.23,0-1.89.87-2,2.59l-.13,1.72H454V234.2h2.21q1.11,9.48,7.07,14a22.88,22.88,0,0,0,14.15,4.49q8.18,0,12.42-4.43a14.62,14.62,0,0,0,4.24-10.45q0-9.6-11.07-14.51l-14.63-6.52a22.17,22.17,0,0,1-10-8.06,19.75,19.75,0,0,1-3.33-11,21.84,21.84,0,0,1,6-15.44q6-6.45,17.34-6.45,6.64,0,13.65,4.42a8.32,8.32,0,0,0,3.2,1.36c1.06,0,1.64-.87,1.72-2.59l.12-2.46h2.34V197.8h-2.21q-1-9.47-6.09-14a18.15,18.15,0,0,0-12.42-4.49q-7.32,0-11.32,4a12.54,12.54,0,0,0-4,9.1,15.9,15.9,0,0,0,2.76,9.16,18.4,18.4,0,0,0,8.18,6.4l14.76,6.51a26.47,26.47,0,0,1,11.13,8.67,19.66,19.66,0,0,1,3.75,11.5q0,8.75-7,15.13T478.37,256.21Z"/></svg>