<svg id="Layer_1" data-name="Layer 1" xmlns="http://www.w3.org/2000/svg" viewBox="0 0 576 432"><defs><style>.cls-1{fill:#231f20;}.cls-2{fill:#003c14;}</style></defs><title>bb finals states</title><path class="cls-1" d="M24.13,249.63v-2.21h5.78c1.14,0,1.72-.49,1.72-1.47v-70.1c0-1-.58-1.48-1.72-1.48H24.13v-2.21H52.9a25.25,25.25,0,0,1,15.81,5,15.72,15.72,0,0,1,6.58,13A18.2,18.2,0,0,1,72,201a20.21,20.21,0,0,1-8.67,6.94A23.61,23.61,0,0,1,76,215q4.86,5.3,4.86,14.09t-7.26,14.69A26.93,26.93,0,0,1,56,249.63Zm26.19-74H41.71v31.48h9.35c4.84,0,8.44-1.63,10.82-4.92a19,19,0,0,0,3.57-11.49,15.91,15.91,0,0,0-3.69-10.83Q58.07,175.61,50.32,175.6Zm5,34.56H41.71v36H55.36q7.38,0,11.5-5.41A20.31,20.31,0,0,0,71,228.11a20,20,0,0,0-4.12-12.6Q62.74,210.16,55.36,210.16Z"/><path class="cls-1" d="M94.47,245.7V175.85c0-1-.58-1.48-1.72-1.48H87v-2.21h25.08v2.21h-5.77c-1.15,0-1.73.49-1.73,1.48V245.7a1.52,1.52,0,0,0,1.73,1.72h5.77v2.21H87v-2.21h5.78A1.52,1.52,0,0,0,94.47,245.7Z"/><path class="cls-1" d="M178.58,249.63,132.34,181V245.7a1.52,1.52,0,0,0,1.73,1.72h5.78v2.21H120.66v-2.21h5.78a1.52,1.52,0,0,0,1.72-1.72V175.85c0-1-.57-1.48-1.72-1.48h-5.78v-2.21h18.08l39.6,58.54V176.09a1.53,1.53,0,0,0-1.72-1.72h-5.78v-2.21H190v2.21h-5.78c-1.15,0-1.72.49-1.72,1.48v73.78Z"/><path class="cls-1" d="M324.37,249.63v-2.21h5.78c1.14,0,1.72-.49,1.72-1.47v-70.1c0-1-.58-1.48-1.72-1.48h-5.78v-2.21h28.77a25.25,25.25,0,0,1,15.81,5,15.72,15.72,0,0,1,6.58,13A18.2,18.2,0,0,1,372.27,201a20.21,20.21,0,0,1-8.67,6.94,23.61,23.61,0,0,1,12.6,7q4.86,5.3,4.86,14.09t-7.26,14.69a26.93,26.93,0,0,1-17.58,5.9Zm26.19-74H342v31.48h9.35c4.84,0,8.44-1.63,10.82-4.92a19,19,0,0,0,3.57-11.49A15.91,15.91,0,0,0,362,179.84Q358.31,175.61,350.56,175.6Zm5,34.56H342v36H355.6q7.38,0,11.5-5.41a20.31,20.31,0,0,0,4.12-12.67,20,20,0,0,0-4.12-12.6Q363,210.16,355.6,210.16Z"/><path class="cls-1" d="M397,240.41q-9.76-10.69-9.77-29.51T397,181.38q9.78-10.69,25.46-10.7t25.46,10.7q9.77,10.69,9.77,29.52t-9.77,29.51q-9.78,10.69-25.46,10.7T397,240.41Zm7.75-56.57q-7.07,10-7.07,27.06t7.07,27q7.08,10,17.65,10t17.71-10q7.13-10,7.13-27t-7.13-27.06q-7.14-10-17.71-10T404.73,183.84Z"/><path class="cls-1" d="M473.78,245.7V175.85c0-1-.57-1.48-1.72-1.48h-5.78v-2.21h25.09v2.21h-5.78c-1.15,0-1.72.49-1.72,1.48V245.7a1.52,1.52,0,0,0,1.72,1.72h5.78v2.21H466.28v-2.21h5.78A1.52,1.52,0,0,0,473.78,245.7Z"/><path class="cls-1" d="M526.17,251.11a33.65,33.65,0,0,1-16.23-4.43,10.8,10.8,0,0,0-3.69-1.35c-1.23,0-1.89.86-2,2.58l-.12,1.72h-2.34V229.1H504q1.11,9.47,7.08,14a22.85,22.85,0,0,0,14.14,4.48q8.18,0,12.42-4.42a14.61,14.61,0,0,0,4.24-10.46q0-9.58-11.07-14.51l-14.63-6.52a22.16,22.16,0,0,1-10-8,19.75,19.75,0,0,1-3.32-11,21.85,21.85,0,0,1,6-15.43q6-6.46,17.34-6.46,6.65,0,13.65,4.43a8.47,8.47,0,0,0,3.2,1.35c1.07,0,1.64-.86,1.72-2.58l.13-2.46h2.33V192.7h-2.21q-1-9.48-6.09-14a18.15,18.15,0,0,0-12.42-4.49q-7.32,0-11.31,4a12.5,12.5,0,0,0-4,9.1,15.86,15.86,0,0,0,2.77,9.16,18.33,18.33,0,0,0,8.18,6.39L537,209.42a26.32,26.32,0,0,1,11.13,8.67,19.66,19.66,0,0,1,3.75,11.5q0,8.73-7,15.13T526.17,251.11Z"/><path class="cls-2" d="M230,175.49l-2.57-9.42a.53.53,0,0,0-.68-.37l-1.28.41A1.15,1.15,0,0,1,224,165l.08-3.11a.52.52,0,0,0-.53-.53c-4.58.1-10.23.15-10.7.27a2.37,2.37,0,0,0-.25,4.5h0C218.82,169.14,223.82,172.46,230,175.49Zm-18.11-11.12a1.54,1.54,0,1,1,1.88,1.08A1.54,1.54,0,0,1,211.92,164.37Z"/><path class="cls-2" d="M277.54,144.73a2.45,2.45,0,0,0-1.54-1.6,4.12,4.12,0,0,0-2.49-.08l-42.78,11.54a4.05,4.05,0,0,0-2.11,1.32,2.45,2.45,0,0,0-.53,2.16l.53,2,49.46-13.34Zm-48.12,13.94-.24-.9a1.31,1.31,0,0,1,.32-1.16,2.92,2.92,0,0,1,1.52-.93l42.79-11.54a3.12,3.12,0,0,1,.85-.12,2.56,2.56,0,0,1,.93.17,1.31,1.31,0,0,1,.87.83l.24.9Z"/><circle class="cls-2" cx="254.45" cy="245.97" r="5.8"/><path class="cls-2" d="M225.48,159.81l56.77-15.31a.6.6,0,0,1,.67.28l2,3.54a.59.59,0,0,1-.36.87l-59,15.91a.59.59,0,0,1-.75-.59l.21-4.16A.59.59,0,0,1,225.48,159.81Z"/><path class="cls-2" d="M303.23,234.81c-2.72-13.5-17.66-71.6-20.78-83.72a.71.71,0,0,0-.87-.5L273,152.91l2.4,8.91a1.07,1.07,0,0,1-.78,1.33h0a1.13,1.13,0,0,1-1.36-.79l-2.39-8.88-14.41,3.89,2.38,8.83a1.16,1.16,0,0,1-.71,1.4,1.1,1.1,0,0,1-1.4-.76l-2.4-8.9L238.9,162.1l2.39,8.83a1.16,1.16,0,0,1-.71,1.4,1.1,1.1,0,0,1-1.41-.76l-2.4-8.9-7.78,2.1a.53.53,0,0,0-.37.65l20.13,74.68a.9.9,0,0,0,1.43.45,6.9,6.9,0,0,1,10.95,7.18.88.88,0,0,0,1.08,1.06l38.2-10.3C302.05,238,303.59,236.58,303.23,234.81Z"/></svg>