<svg id="Layer_1" data-name="Layer 1" xmlns="http://www.w3.org/2000/svg" viewBox="0 0 576 432"><defs><style>.cls-1{fill:#231f20;}.cls-2{fill:#003c14;}</style></defs><title>bb finals states</title><path class="cls-1" d="M22.9,267.08v-2.21h5.78c1.15,0,1.72-.49,1.72-1.47V193.3c0-1-.57-1.48-1.72-1.48H22.9v-2.21H51.68a25.22,25.22,0,0,1,15.8,5,15.69,15.69,0,0,1,6.58,13,18.2,18.2,0,0,1-3.26,10.76,20.09,20.09,0,0,1-8.67,6.94,23.6,23.6,0,0,1,12.61,7q4.85,5.29,4.85,14.09a18.19,18.19,0,0,1-7.25,14.69,27,27,0,0,1-17.59,5.9Zm26.2-74H40.49v31.48h9.34q7.26,0,10.83-4.92a19.08,19.08,0,0,0,3.56-11.49,15.91,15.91,0,0,0-3.69-10.83Q56.84,193.06,49.1,193.05Zm5,34.56H40.49v36H54.14q7.38,0,11.5-5.41a20.37,20.37,0,0,0,4.12-12.67A20.09,20.09,0,0,0,65.64,233Q61.52,227.6,54.14,227.61Z"/><path class="cls-1" d="M93.24,263.15V193.3c0-1-.57-1.48-1.72-1.48H85.74v-2.21h25.09v2.21h-5.78c-1.15,0-1.72.49-1.72,1.48v69.85a1.52,1.52,0,0,0,1.72,1.72h5.78v2.21H85.74v-2.21h5.78A1.52,1.52,0,0,0,93.24,263.15Z"/><path class="cls-1" d="M177.36,267.08l-46.24-68.62v64.69a1.52,1.52,0,0,0,1.72,1.72h5.78v2.21H119.44v-2.21h5.78a1.52,1.52,0,0,0,1.72-1.72V193.3c0-1-.58-1.48-1.72-1.48h-5.78v-2.21h18.07l39.6,58.54V193.54a1.52,1.52,0,0,0-1.72-1.72h-5.78v-2.21H188.8v2.21H183c-1.15,0-1.73.49-1.73,1.48v73.78Z"/><path class="cls-1" d="M227.53,267.08v-2.21h5.78c1.15,0,1.73-.49,1.73-1.47V193.3c0-1-.58-1.48-1.73-1.48h-5.78v-2.21h28.78a25.2,25.2,0,0,1,15.8,5,15.69,15.69,0,0,1,6.58,13,18.19,18.19,0,0,1-3.25,10.76,20.18,20.18,0,0,1-8.68,6.94,23.6,23.6,0,0,1,12.61,7q4.86,5.29,4.86,14.09T277,261.18a27,27,0,0,1-17.58,5.9Zm26.2-74h-8.61v31.48h9.35q7.25,0,10.82-4.92a19,19,0,0,0,3.57-11.49,15.91,15.91,0,0,0-3.69-10.83Q261.48,193.06,253.73,193.05Zm5,34.56H245.12v36h13.65q7.38,0,11.5-5.41a20.31,20.31,0,0,0,4.12-12.67,20,20,0,0,0-4.12-12.6Q266.15,227.6,258.77,227.61Z"/><path class="cls-1" d="M300.15,257.86q-9.78-10.7-9.77-29.51t9.77-29.52q9.78-10.7,25.46-10.7t25.46,10.7q9.76,10.69,9.77,29.52t-9.77,29.51q-9.78,10.69-25.46,10.7T300.15,257.86Zm7.75-56.57q-7.08,10-7.07,27.06t7.07,27.05q7.07,10,17.65,10t17.71-10q7.13-10,7.13-27.05t-7.13-27.06q-7.14-10-17.71-10T307.9,201.29Z"/><path class="cls-1" d="M377,263.15V193.3c0-1-.57-1.48-1.72-1.48h-5.78v-2.21h25.09v2.21h-5.78c-1.15,0-1.72.49-1.72,1.48v69.85a1.52,1.52,0,0,0,1.72,1.72h5.78v2.21H369.45v-2.21h5.78A1.52,1.52,0,0,0,377,263.15Z"/><path class="cls-1" d="M429.34,268.56a33.65,33.65,0,0,1-16.23-4.43,10.8,10.8,0,0,0-3.69-1.35c-1.23,0-1.89.86-2,2.58l-.12,1.72H405V246.55h2.21q1.11,9.46,7.07,13.95A22.82,22.82,0,0,0,428.42,265q8.18,0,12.42-4.42a14.62,14.62,0,0,0,4.24-10.46q0-9.59-11.07-14.51l-14.63-6.52a22.16,22.16,0,0,1-10-8.05,19.75,19.75,0,0,1-3.32-11,21.81,21.81,0,0,1,6-15.43q6-6.47,17.34-6.46,6.65,0,13.65,4.43a8.47,8.47,0,0,0,3.2,1.35c1.06,0,1.64-.86,1.72-2.58l.12-2.46h2.34v21.28h-2.21q-1-9.48-6.09-14a18.1,18.1,0,0,0-12.42-4.49q-7.32,0-11.31,4a12.5,12.5,0,0,0-4,9.1,15.86,15.86,0,0,0,2.77,9.16,18.3,18.3,0,0,0,8.17,6.39l14.76,6.52a26.32,26.32,0,0,1,11.13,8.67A19.66,19.66,0,0,1,455,247q0,8.73-7,15.13T429.34,268.56Z"/><path class="cls-2" d="M479.85,194.16l-2.58-9.42a.53.53,0,0,0-.68-.37l-1.28.4a1.14,1.14,0,0,1-1.49-1.12l.08-3.11a.51.51,0,0,0-.52-.53c-4.58.1-10.23.14-10.71.27a2.37,2.37,0,0,0-.25,4.5h0C468.64,187.81,473.63,191.13,479.85,194.16ZM461.74,183a1.53,1.53,0,1,1,1.88,1.09A1.54,1.54,0,0,1,461.74,183Z"/><path class="cls-2" d="M527.36,163.4a2.46,2.46,0,0,0-1.55-1.6,4.09,4.09,0,0,0-2.48-.08l-42.79,11.54a4,4,0,0,0-2.1,1.32,2.44,2.44,0,0,0-.54,2.15l.54,2,49.45-13.34Zm-48.13,13.94-.24-.9a1.32,1.32,0,0,1,.33-1.16,2.92,2.92,0,0,1,1.51-.94l42.79-11.53a3.12,3.12,0,0,1,.85-.12,2.79,2.79,0,0,1,.93.16,1.35,1.35,0,0,1,.87.84l.24.9Z"/><circle class="cls-2" cx="504.27" cy="264.64" r="5.8"/><path class="cls-2" d="M475.29,178.48l56.78-15.31a.59.59,0,0,1,.66.28l2,3.54a.59.59,0,0,1-.35.87l-59,15.91a.59.59,0,0,1-.74-.6l.2-4.15A.6.6,0,0,1,475.29,178.48Z"/><path class="cls-2" d="M553.05,253.48c-2.73-13.5-17.67-71.6-20.79-83.72a.71.71,0,0,0-.87-.5l-8.59,2.31,2.41,8.92a1.08,1.08,0,0,1-.79,1.33h0a1.13,1.13,0,0,1-1.35-.79l-2.4-8.88L506.26,176l2.38,8.83a1.14,1.14,0,0,1-.7,1.4,1.1,1.1,0,0,1-1.41-.76l-2.4-8.9-15.41,4.16,2.38,8.83a1.15,1.15,0,0,1-.7,1.4,1.1,1.1,0,0,1-1.41-.76l-2.4-8.9-7.78,2.1a.52.52,0,0,0-.38.65l20.14,74.68a.89.89,0,0,0,1.42.45,6.78,6.78,0,0,1,3.08-1.38,6.91,6.91,0,0,1,7.62,4.27,6.83,6.83,0,0,1,.25,4.29.88.88,0,0,0,1.09,1.06l38.2-10.3C551.86,256.71,553.4,255.25,553.05,253.48Z"/></svg>